HIERARCHY
ROOT Hips
{
    OFFSET 0.0 0.0 0.0
    CHANNELS 6 Xposition Yposition Zposition Zrotation Xrotation Yrotation
    JOINT LHipJoint
    {
        OFFSET 0.1 0.0 0.0
        CHANNELS 3 Zrotation Xrotation Yrotation
        JOINT LeftHip
        {
            OFFSET 0.1697809249162674 0.0 0.0
            CHANNELS 3 Zrotation Xrotation Yrotation
            JOINT LeftKnee
            {
                OFFSET 0.0 0.0 -0.31428951025009155
                CHANNELS 3 Zrotation Xrotation Yrotation
                JOINT LeftAnkle
                {
                    OFFSET 0.0 0.0 -0.5130666494369507
                    CHANNELS 3 Zrotation Xrotation Yrotation
                    End Site
                    {
                        OFFSET 0.0 -0.1 0.0
                    }
                }
            }
        }
    }
    JOINT lowerback
    {
        OFFSET 0.0 0.0 0.1
        CHANNELS 3 Zrotation Xrotation Yrotation
        JOINT Chest
        {
            OFFSET 0.0 0.0 0.2723461091518402
            CHANNELS 3 Zrotation Xrotation Yrotation
            JOINT Chest2
            {
                OFFSET 0.0 0.0 0.31228214502334595
                CHANNELS 3 Zrotation Xrotation Yrotation
                JOINT LeftCollar
                {
                    OFFSET 0.1 0.0 0.0
                    CHANNELS 3 Zrotation Xrotation Yrotation
                    JOINT LeftShoulder
                    {
                        OFFSET 0.2186739444732666 0.0 0.0
                        CHANNELS 3 Zrotation Xrotation Yrotation
                        JOINT LeftElbow
                        {
                            OFFSET 0.2778531610965729 0.0 0.0
                            CHANNELS 3 Zrotation Xrotation Yrotation
                            JOINT LeftWrist
                            {
                                OFFSET 0.3733416497707367 0.0 0.0
                                CHANNELS 3 Zrotation Xrotation Yrotation
                                End Site
                                {
                                    OFFSET 0.1 0.0 0.0
                                }
                            }
                        }
                    }
                }
                JOINT Neck
                {
                    OFFSET 0.0 0.0 0.1
                    CHANNELS 3 Zrotation Xrotation Yrotation
                    JOINT Head
                    {
                        OFFSET 0.0 0.0 0.2967161536216736
                        CHANNELS 3 Zrotation Xrotation Yrotation
                        End Site
                        {
                            OFFSET 0.0 0.0 0.1692984402179718
                        }
                    }
                }
                JOINT RightCollar
                {
                    OFFSET -0.1 0.0 0.0
                    CHANNELS 3 Zrotation Xrotation Yrotation
                    JOINT RightShoulder
                    {
                        OFFSET -0.2186739444732666 0.0 0.0
                        CHANNELS 3 Zrotation Xrotation Yrotation
                        JOINT RightElbow
                        {
                            OFFSET -0.2778531610965729 0.0 0.0
                            CHANNELS 3 Zrotation Xrotation Yrotation
                            JOINT RightWrist
                            {
                                OFFSET -0.3733416497707367 0.0 0.0
                                CHANNELS 3 Zrotation Xrotation Yrotation
                                End Site
                                {
                                    OFFSET -0.1 0.0 0.0
                                }
                            }
                        }
                    }
                }
            }
        }
    }
    JOINT RHipJoint
    {
        OFFSET -0.1 0.0 0.0
        CHANNELS 3 Zrotation Xrotation Yrotation
        JOINT RightHip
        {
            OFFSET -0.1697809249162674 0.0 0.0
            CHANNELS 3 Zrotation Xrotation Yrotation
            JOINT RightKnee
            {
                OFFSET 0.0 0.0 -0.31428951025009155
                CHANNELS 3 Zrotation Xrotation Yrotation
                JOINT RightAnkle
                {
                    OFFSET 0.0 0.0 -0.5130666494369507
                    CHANNELS 3 Zrotation Xrotation Yrotation
                    End Site
                    {
                        OFFSET 0.0 -0.1 0.0
                    }
                }
            }
        }
    }
}
MOTION
Frames: 8
Frame Time: 0.06666666666666667
2.9380749765550718e-05 0.3176616430282593 -6.023341848049313e-05 -42.786853827375275 -16.06142130602489 -5.820913477923892 0.0 3.155706598014583e-15 0.0 13.423909895105362 17.695462934369907 -18.877157737121415 -0.29139501502158005 -0.8137190233786187 -36.53832215944639 0.0 0.0 0.0 0.0 3.155706598014583e-15 0.0 -1.726348779546265 -2.3261943211557745 5.704026551812047 26.221758085379808 7.370799395516926e-07 -1.4753139971206912e-07 3.1805546814635168e-15 -1.1034765745125397e-32 -3.975693351829396e-16 -4.630916512633919 -64.80233545627881 -154.41337416606564 -85.5902270947354 -5.349092719086777e-06 2.438101510008883e-06 3.1805546814635168e-15 -3.1805546814635168e-15 1.5902773407317584e-15 3.1805546814635168e-15 -1.1034765745125397e-32 -3.975693351829396e-16 -29.265086385495444 -44.324343413276814 -42.316789814334015 3.1805546814635168e-15 -1.1034765745125397e-32 -3.975693351829396e-16 -23.314288865688887 -59.68639633118103 90.86451958477022 68.63962142196836 2.0281270531589164e-06 -1.4944239374223922e-06 3.1805546814635164e-15 4.4139062980501586e-32 1.5902773407317582e-15 0.0 3.155706598014583e-15 0.0 -41.05706741213179 -41.52852320174318 -37.96303700170527 140.2735298970943 67.31061488614108 -160.4100934708881 -3.1805546814635168e-15 -1.5902773407317584e-15 -7.951386703658792e-16
2.8875823772978038e-05 0.3176613748073578 -5.971676728222519e-05 -38.58762527739312 -16.41428003230368 -5.065796393277933 0.0 0.0 0.0 11.321407338176599 15.955699388571658 -16.967869750018323 -0.6545623172033044 -1.83651727097667 -37.921349813888035 -1.1034765745125397e-31 1.5902773407317584e-15 7.951386703658792e-15 0.0 0.0 0.0 -1.006544682931545 -1.4338722168656959 5.271136971498736 22.77905587095364 -1.1274725039738978e-06 -9.091031557730456e-07 -2.069018577211012e-33 -1.987846675914698e-16 -1.1927080055488188e-15 -5.100364201281274 -65.4380195191197 -153.70444071396815 -87.42529175633902 -1.474593023577196e-06 3.4975817136991196e-06 2.648343778830095e-31 3.1805546814635164e-15 -9.541664044390549e-15 -2.069018577211012e-33 -1.987846675914698e-16 -1.1927080055488188e-15 -29.33167882141492 -44.89492933203223 -41.006935106366335 -2.069018577211012e-33 -1.987846675914698e-16 -1.1927080055488188e-15 -23.224385628601414 -60.087852506365444 92.99457340973566 68.00480441796105 8.281524331235405e-07 -3.252566015815152e-06 0.0 0.0 -7.95138670365879e-15 0.0 0.0 0.0 -40.97391494739939 -43.065891465264166 -34.945150627458915 133.34760986514326 67.08957216208525 -156.70317420050046 1.5902773407317584e-15 5.517382872562698e-33 3.975693351829396e-16
2.5543504307279363e-05 0.31766989827156067 -6.799506081733853e-05 -30.30701811020372 -15.551311401463606 -3.704669783808415 3.1805546814635168e-15 0.0 0.0 8.945025091369526 14.631672473040327 -10.92913064058687 -2.8105651705369863 -7.07156597569253 -41.285740510442764 6.361109362927033e-15 2.8690390937326033e-31 5.168401357378214e-15 3.1805546814635168e-15 0.0 0.0 0.037219887556447596 0.06099240660531726 3.746256659975484 18.5706407536014 7.037388681978413e-07 9.728963758492769e-07 0.0 0.0 3.975693351829397e-16 35.01496742961965 -70.09481865822134 -112.7748012151348 -41.30190682138227 1.070332193809604e-06 4.370753239215171e-06 -6.361109362927035e-15 -2.2069531490250793e-31 3.975693351829397e-15 0.0 0.0 3.975693351829397e-16 -48.35038182304483 -45.57084925254136 -45.81787672181903 0.0 0.0 3.975693351829397e-16 -31.988889731149914 -58.88563430051129 88.6452570665119 63.62899845223482 -3.3664374645999852e-06 8.873264955066122e-07 3.1805546814635168e-15 4.4139062980501586e-32 1.5902773407317584e-15 3.1805546814635168e-15 0.0 0.0 -43.48981833846115 -48.46675259243235 -33.93629774661565 111.33367879234075 70.79390018355687 -134.01750505107137 1.5902773407317584e-15 1.5902773407317584e-15 -1.5902773407317584e-15
2.413604306639172e-05 0.3176593780517578 -6.587230018340051e-05 -34.17657036917526 -15.647454750445455 -6.849739864126289 0.0 0.0 7.951386703658792e-16 10.317054896140467 18.922057025681774 -10.004874514617278 -2.895939832130826 -8.01980224017753 -43.315211772711955 0.0 0.0 7.951386703658792e-16 0.0 0.0 7.951386703658792e-16 -0.06667774969702385 -0.12513661316555202 9.413783651095141 21.523878217268525 -4.538286430952181e-07 1.1770075387239562e-06 -1.3793457181406746e-33 1.987846675914698e-16 7.951386703658792e-16 45.70966279287437 -75.2196584509865 -103.89760880675173 -43.79712283307052 9.06720054398283e-07 -8.47644732359188e-07 -1.3241718894150476e-31 6.3611093629270335e-15 2.3854160110976376e-15 -1.3793457181406746e-33 1.987846675914698e-16 7.951386703658792e-16 -42.371092805111374 -44.25278118222634 -47.33357988284457 -1.3793457181406746e-33 1.987846675914698e-16 7.951386703658792e-16 -39.30500938538243 -57.05500133382796 79.63321436102204 64.57162123603248 -2.939795197264294e-06 -3.173319745166501e-06 -3.1805546814635168e-15 3.1805546814635168e-15 8.827812596100317e-32 0.0 0.0 7.951386703658792e-16 -35.549044363935096 -47.53217452698132 -29.272739632485123 92.04222651765805 74.98778741452392 -108.34384008505391 0.0 0.0 -2.4848083448933726e-15
1.8823851860361174e-05 0.3176635503768921 -7.11637840140611e-05 -32.331500698486906 -14.95191921786896 -6.122578926535679 6.361109362927033e-15 0.0 0.0 8.9033159834368 18.570783727080165 -11.958362877782246 -2.1373214695859684 -8.086910564118241 -43.43333923058334 3.1805546814635168e-15 0.0 0.0 6.361109362927033e-15 0.0 0.0 -1.0670610617660428 -2.2620322153841173 7.237888604215909 22.847780900030045 -4.0499363361843625e-07 -6.667259246261359e-07 0.0 0.0 3.975693351829397e-16 4.978163470775245 -68.43248646062901 -138.8638785743219 -40.159266972764854 -2.730862816648066e-07 6.6822886990832025e-06 0.0 0.0 -3.3793393490549868e-15 0.0 0.0 3.975693351829397e-16 -45.469564399493684 -47.179803276894674 -48.98785921438193 0.0 0.0 3.975693351829397e-16 -37.733301405137404 -56.92077751294424 87.45175173189756 62.50459088337864 -6.321304453530865e-06 -5.225477387410223e-06 0.0 0.0 -3.1805546814635168e-15 6.361109362927033e-15 0.0 0.0 -32.69031564547672 -48.94031137702602 -24.98153212883837 68.96804589261988 73.32601143997252 -80.62919596643113 3.180554681463516e-15 7.951386703658792e-16 7.007159532599309e-15
2.240498724859208e-05 0.3176550269126892 -6.335451325867325e-05 -41.17152061513321 -14.765210583069639 -6.262706488417321 6.361109362927033e-15 2.4848083448933722e-17 -1.3793457181406746e-33 12.018881602665484 22.532712438249042 -21.407220847058568 -0.9531918715085869 -6.737660124803384 -32.611509998521846 -3.1805546814635176e-15 2.2069531490250793e-32 -7.951386703658794e-16 6.361109362927033e-15 2.4848083448933722e-17 -1.3793457181406746e-33 -1.2771356759401868 -2.497191314263051 4.4326465963601684 31.226666348878798 1.1877737179561826e-06 5.416959198543586e-07 0.0 0.0 -1.987846675914698e-16 30.663730821258174 -67.88220382712969 -113.40333731961564 -32.67702084917416 4.142194688431116e-06 2.444425068961695e-06 6.361109362927033e-15 6.3611093629270335e-15 7.702905869169454e-15 0.0 0.0 -1.987846675914698e-16 -37.108413709241184 -43.62168945331392 -41.21618132466877 0.0 0.0 -1.987846675914698e-16 -39.87105937238682 -57.96169274402872 83.40573244975197 62.36318431103262 -2.8956630119043735e-06 -4.87738565133469e-07 -2.648343778830095e-31 3.1805546814635176e-15 9.541664044390553e-15 6.361109362927033e-15 2.4848083448933722e-17 -1.3793457181406746e-33 -30.523395201735948 -44.86560047670008 -29.366863564452167 68.40147889747324 78.4906153579898 -79.2887651806944 0.0 0.0 2.3854160110976384e-15
2.4198296159738675e-05 0.31765925884246826 -6.540052709169686e-05 -48.41652755798456 -13.563323962746058 -9.303459849578921 0.0 -3.1805546814635168e-15 0.0 14.009755450022732 26.838746209927397 -18.159575230232907 -1.1563109044056086 -5.888098650281012 -33.79554647674669 2.427648463927587e-31 3.1805546814635176e-15 -8.746525374024672e-15 0.0 -3.1805546814635168e-15 0.0 -0.8842948569662402 -1.8182620219200394 6.958531452783076 36.55544061117304 4.952156405600446e-08 -3.802344176774704e-07 0.0 0.0 -7.951386703658791e-16 151.54191268403056 5.90326529898497 -24.486399063423484 -10.619841409229624 -1.190149782191607e-05 -5.039989764052745e-06 -6.3611093629270335e-15 1.7655625192200634e-31 -3.1805546814635168e-15 0.0 0.0 -7.951386703658791e-16 -41.36106386340289 -42.932180454977924 -45.00834454285542 0.0 0.0 -7.951386703658791e-16 -49.18518014588187 -57.202711005714455 71.45178035135638 62.26117458331685 3.6723746091124127e-07 -3.472837241649301e-06 3.1805546814635176e-15 -1.3241718894150476e-31 -4.770832022195277e-15 0.0 -3.1805546814635168e-15 0.0 -27.82492391203889 -43.8740503149374 -30.69611831759643 59.783631660279134 82.15194499111527 -67.80438355582768 0.0 0.0 -7.156248033292912e-15
2.115336974384263e-05 0.317660927772522 -6.878796557430178e-05 -49.67213696796488 -12.820248170303548 -10.558172119609845 0.0 0.0 7.951386703658792e-16 13.392676725772946 27.779845969912795 -15.447975311243885 -1.0388293463794633 -4.907916023846577 -36.71902089495807 3.1805546814635168e-15 2.3173008064763334e-31 8.348956038841732e-15 0.0 0.0 7.951386703658792e-16 -0.9940213634598026 -2.22111512313775 7.962445042127253 38.159539750081905 8.605223773140531e-07 -6.417846017778343e-07 0.0 0.0 1.987846675914698e-16 -167.1376983601153 60.38563728747477 -48.770176005715406 -11.7198012847511 -4.532754101927665e-06 -1.1189204339327195e-06 3.1805546814635168e-15 0.0 0.0 0.0 0.0 1.987846675914698e-16 -40.82525871665802 -45.40707733284737 -46.58463614600824 0.0 0.0 1.987846675914698e-16 -51.657196492249376 -59.460397956097644 70.96172062877639 65.47615488546927 5.833987249462907e-07 -3.1067634613393358e-06 0.0 0.0 0.0 0.0 0.0 7.951386703658792e-16 -25.465417461454468 -43.91958250678135 -28.85237252753618 50.85683323607496 82.50247798988958 -57.633001346176776 -3.1805546814635168e-15 1.2138242319637935e-31 -4.373262687012335e-15
